<?xml version="1.0" encoding="UTF-8"?>
<svg xmlns="http://www.w3.org/2000/svg" xmlns:xlink="http://www.w3.org/1999/xlink" width="1500px" height="1500px" viewBox="0 0 1500 1500" version="1.1">
<g id="surface1">
<path style=" stroke:none;fill-rule:nonzero;fill:rgb(0%,0%,0%);fill-opacity:1;" d="M 538.285156 346.207031 C 505.894531 361.910156 492.144531 398.230469 506.871094 430.300781 C 515.050781 448.300781 530.105469 460.078125 552.355469 466.621094 C 562.5 469.570312 572.972656 473.496094 575.261719 475.457031 C 577.878906 477.421875 585.074219 489.199219 591.292969 501.960938 C 600.128906 519.304688 602.417969 527.484375 601.113281 536.320312 C 599.800781 546.46875 527.8125 670.808594 498.691406 713.675781 C 487.894531 729.714844 478.730469 732.984375 448.300781 732.984375 L 422.121094 732.984375 L 400.851562 713.347656 C 386.457031 700.589844 375.328125 693.066406 367.800781 691.753906 C 322.316406 683.246094 285.011719 714.332031 288.613281 757.851562 C 291.558594 791.882812 317.410156 815.769531 351.441406 815.769531 C 371.730469 815.769531 384.492188 809.554688 400.851562 792.210938 C 417.539062 774.539062 427.03125 771.269531 456.480469 772.902344 C 477.421875 773.886719 482.003906 775.195312 488.878906 782.066406 C 493.128906 786.652344 512.433594 821.011719 531.738281 858.964844 C 551.042969 896.597656 568.386719 928.992188 569.699219 930.628906 C 576.566406 938.484375 572.316406 957.136719 559.230469 977.417969 C 543.519531 1001.636719 535.667969 1007.855469 521.925781 1007.855469 C 495.746094 1007.855469 468.257812 1024.871094 459.421875 1046.136719 C 452.878906 1061.847656 453.863281 1087.699219 461.386719 1102.746094 C 464.988281 1109.949219 474.144531 1119.761719 481.675781 1124.671875 C 493.128906 1132.523438 498.691406 1133.835938 517.011719 1133.835938 C 535.339844 1133.835938 540.902344 1132.523438 552.355469 1124.671875 C 560.207031 1119.761719 569.042969 1109.949219 572.972656 1102.097656 C 579.1875 1089.660156 579.84375 1085.082031 577.878906 1055.953125 L 575.589844 1023.886719 L 590.644531 1002.941406 C 598.824219 991.496094 607.003906 981.023438 608.964844 979.710938 C 620.089844 972.839844 642.667969 973.167969 732 980.039062 C 844.242188 988.546875 839.003906 986.582031 858.964844 1025.199219 L 872.058594 1050.394531 L 864.527344 1070.675781 C 860.601562 1082.132812 857.332031 1096.527344 857.332031 1102.746094 C 857.652344 1118.457031 867.472656 1138.746094 879.910156 1149.539062 C 930.957031 1192.40625 1006.21875 1135.472656 978.730469 1074.933594 C 970.875 1057.265625 955.824219 1045.152344 934.230469 1038.613281 C 911.648438 1032.394531 905.761719 1027.160156 893.324219 1003.269531 C 876.960938 971.53125 877.289062 970.546875 931.285156 881.871094 C 989.53125 785.667969 993.128906 780.761719 1003.269531 775.851562 C 1007.855469 773.886719 1023.234375 772.253906 1037.628906 772.253906 L 1063.808594 772.253906 L 1082.789062 789.917969 C 1103.730469 810.210938 1113.222656 814.792969 1134.492188 814.792969 C 1208.113281 814.792969 1220.878906 713.019531 1150.523438 690.445312 C 1140.378906 687.167969 1134.164062 687.167969 1119.761719 690.445312 C 1105.035156 693.714844 1098.820312 697.316406 1084.425781 711.714844 C 1064.789062 731.675781 1054.972656 734.949219 1023.5625 732 C 1007.199219 730.691406 1001.964844 728.402344 994.761719 720.878906 C 980.367188 706.152344 912.960938 571.007812 912.960938 557.261719 C 912.960938 548.753906 916.886719 540.246094 927.683594 524.871094 C 945.023438 500.652344 947.644531 499.019531 972.1875 496.074219 C 993.785156 493.453125 1007.199219 485.929688 1019.628906 469.570312 C 1036.324219 447.316406 1034.035156 410.339844 1014.726562 388.089844 C 996.074219 366.820312 952.878906 363.222656 930.300781 381.871094 C 907.066406 400.523438 901.503906 419.503906 908.050781 460.734375 C 910.667969 477.75 910.339844 478.402344 895.289062 500.324219 C 885.46875 514.722656 876.308594 524.542969 869.765625 527.160156 C 857.652344 532.066406 835.734375 531.738281 735.277344 523.886719 C 646.597656 517.011719 646.921875 517.339844 629.253906 487.566406 C 614.855469 464.003906 612.890625 451.242188 620.417969 434.226562 C 629.253906 414.917969 628.597656 387.761719 618.785156 372.050781 C 602.089844 344.894531 565.449219 333.445312 538.285156 346.207031 Z M 796.464844 625.003906 C 818.71875 633.839844 845.550781 657.070312 859.945312 679.972656 C 886.78125 722.183594 886.78125 780.433594 859.292969 822.316406 C 830.167969 867.144531 787.628906 889.402344 736.582031 886.125 C 702.222656 883.832031 678.011719 873.691406 654.449219 852.09375 C 623.363281 822.972656 608.636719 790.574219 608.636719 750.984375 C 608.636719 692.082031 646.597656 640.054688 703.535156 621.074219 C 728.402344 612.890625 769.964844 614.855469 796.464844 625.003906 Z M 796.464844 625.003906 "/>
<path style=" stroke:none;fill-rule:nonzero;fill:rgb(0%,0%,0%);fill-opacity:1;" d="M 720.878906 689.460938 C 702.550781 695.675781 685.535156 715.640625 680.628906 736.582031 C 668.519531 787.300781 717.277344 833.769531 766.03125 817.734375 C 799.738281 806.285156 820.683594 769.964844 811.847656 737.238281 C 806.285156 716.296875 795.160156 702.550781 775.851562 692.738281 C 755.886719 682.917969 741.492188 681.9375 720.878906 689.460938 Z M 720.878906 689.460938 "/>
</g>
</svg>
